<?xml version="1.0" encoding="iso-8859-1"?>
<!-- Generator: Adobe Illustrator 18.0.0, SVG Export Plug-In . SVG Version: 6.00 Build 0)  -->
<!DOCTYPE svg PUBLIC "-//W3C//DTD SVG 1.1//EN" "http://www.w3.org/Graphics/SVG/1.1/DTD/svg11.dtd">
<svg xmlns="http://www.w3.org/2000/svg" xmlns:xlink="http://www.w3.org/1999/xlink" version="1.1" id="Capa_1" x="0px" y="0px" viewBox="0 0 414.93 414.93" style="enable-background:new 0 0 414.93 414.93;" xml:space="preserve" width="512px" height="512px">
<path d="M393.832,21.097C379.603,6.868,359.894-0.798,339.809,0.066c-20.12,0.865-39.099,10.201-52.07,25.616  C208.28,120.109,120.111,208.277,25.682,287.738C10.267,300.71,0.93,319.689,0.066,339.809  c-0.863,20.104,6.803,39.794,21.032,54.024c13.505,13.505,31.928,21.097,50.955,21.097c1.021,0,2.044-0.022,3.067-0.066  c20.12-0.864,39.1-10.201,52.071-25.617c79.459-94.427,167.628-182.595,262.056-262.055c15.415-12.972,24.752-31.952,25.616-52.072  C415.728,55.017,408.062,35.326,393.832,21.097z M271.902,62.563V216.87c-5.084,4.906-10.147,9.833-15.184,14.788V79.781  C261.811,74.067,266.872,68.328,271.902,62.563z M118.01,381.521c-10.973,13.039-26.388,20.623-43.404,21.354  c-16.999,0.732-32.988-5.494-45.023-17.528c-12.033-12.033-18.258-28.023-17.527-45.023c0.73-17.017,8.314-32.432,21.354-43.404  c31.849-26.8,62.97-54.607,93.31-83.285v157.651C123.812,374.695,120.893,378.095,118.01,381.521z M138.718,357.323v-155.09  c36.595-35.12,71.972-71.551,106-109.101v150.399C208.013,280.208,172.633,318.208,138.718,357.323z M402.875,74.605  c-0.731,17.018-8.315,32.433-21.354,43.405c-33.359,28.071-65.921,57.245-97.619,87.371V48.71  c4.361-5.085,8.708-10.18,13.019-15.302c10.972-13.039,26.387-20.623,43.403-21.354c16.999-0.734,32.99,5.494,45.024,17.528  C397.38,41.615,403.605,57.604,402.875,74.605z" fill="#FFFFFF"/>
<g>
</g>
<g>
</g>
<g>
</g>
<g>
</g>
<g>
</g>
<g>
</g>
<g>
</g>
<g>
</g>
<g>
</g>
<g>
</g>
<g>
</g>
<g>
</g>
<g>
</g>
<g>
</g>
<g>
</g>
</svg>
