<svg xmlns="http://www.w3.org/2000/svg" viewBox="0 0 512 288.44"><defs><style>.a{fill:#fff;}</style></defs><title>bike</title><path class="a" d="M412.37,201a99.09,99.09,0,0,0-38.05,7.56l-41.24-80h47.67a10.06,10.06,0,0,1,0,20.11h-9.82a8.36,8.36,0,0,0,0,16.71h9.82a26.77,26.77,0,0,0,0-53.54H319.37A8.36,8.36,0,0,0,311.94,124l17.13,33.24H191.76l-14.65-28.71h23.18a8.36,8.36,0,1,0,0-16.71H138.91a8.36,8.36,0,1,0,0,16.71h19.43l18.73,36.7-30.64,47.46A99.62,99.62,0,1,0,193.14,335l42.26,2.65L233,345.32a8.36,8.36,0,1,0,16,4.91l3.52-11.47c1,.08,2,.13,3,.13a38.28,38.28,0,0,0,27.33-65.11l59.2-91.37,17.41,33.79A99.58,99.58,0,1,0,412.37,201Zm-261,34.89a83.35,83.35,0,0,1,24.19,31.43l-46.35,2.91ZM99.63,383.51a82.92,82.92,0,1,1,37.69-156.74l-28.86,44.72-9.27.58a28.52,28.52,0,0,0,0,57l76.35,4.79A83,83,0,0,1,99.63,383.51Zm11.82-82.92a11.82,11.82,0,1,1-11.82-11.82A11.83,11.83,0,0,1,111.45,300.59Zm69.37,16.89-56-3.51a28.46,28.46,0,0,0,0-26.76l56-3.51a83.16,83.16,0,0,1,0,33.78Zm41.77,2.62-24.94-1.56a100,100,0,0,0,0-35.89l24.94-1.56a38.19,38.19,0,0,0,0,39Zm-29.45-53.92a100.08,100.08,0,0,0-32.67-44.44l25.39-39.33L227.5,264Zm64.54,55.89,5.85-19a8.36,8.36,0,1,0-16-4.91l-5.84,19a21.58,21.58,0,1,1,16,4.93Zm11.17-57.4a38,38,0,0,0-17.7-2.13l-5.47.34-45.39-89H327.65ZM412.37,383.51a82.88,82.88,0,0,1-45.2-152.38l25.63,49.74a8.36,8.36,0,0,0,14.86-7.66L382,223.45a82.91,82.91,0,1,1,30.35,160.06Z" transform="translate(0 -111.78)"/><path class="a" d="M420.08,297.39c.21.5-.2-.5,0,0Z" transform="translate(0 -111.78)"/><path class="a" d="M404.5,297.77a8.35,8.35,0,1,0,15.58-.38C417.28,290.4,407,290.81,404.5,297.77Z" transform="translate(0 -111.78)"/></svg>