<?xml version="1.0" encoding="iso-8859-1"?>
<!-- Generator: Adobe Illustrator 19.0.0, SVG Export Plug-In . SVG Version: 6.00 Build 0)  -->
<svg xmlns="http://www.w3.org/2000/svg" xmlns:xlink="http://www.w3.org/1999/xlink" version="1.1" id="Capa_1" x="0px" y="0px" viewBox="0 0 480 480" style="enable-background:new 0 0 480 480;" xml:space="preserve" width="512px" height="512px">
<path id="XMLID_2388_" d="M246.643,2.525c-1.753-1.56-4.059-2.512-6.586-2.525c-0.019,0.008-0.019,0-0.027,0  c-0.007,0.003-0.019,0-0.029,0c-0.009,0-0.017,0.001-0.029,0c-0.008,0.001-0.002,0.01-0.027,0c-2.528,0.014-4.833,0.966-6.586,2.525  C161.318,65.942,120,157.964,120,255c0,81.835,29.335,160.525,82.602,221.574c3.309,3.792,8.919,4.534,13.1,1.734L240,462.035  l24.298,16.273c1.7,1.139,3.637,1.691,5.56,1.691c2.804,0,5.577-1.176,7.54-3.426C330.665,415.525,360,336.835,360,255  C360,157.964,318.682,65.942,246.643,2.525z M268.011,456.725l-22.446-15.033C243.881,440.563,241.941,440,240,440  s-3.881,0.563-5.564,1.691l-22.446,15.033C165.504,400.318,140,329.034,140,255c0-83.567,32.543-163.155,90-221.757V290  c0,5.522,4.477,10,10,10s10-4.478,10-10V33.243C307.457,91.845,340,171.433,340,255C340,329.034,314.496,400.318,268.011,456.725z   M250,360v10c0,5.522-4.477,10-10,10s-10-4.478-10-10v-10c0-5.522,4.477-10,10-10S250,354.478,250,360z" fill="#FFFFFF"/>
<g>
</g>
<g>
</g>
<g>
</g>
<g>
</g>
<g>
</g>
<g>
</g>
<g>
</g>
<g>
</g>
<g>
</g>
<g>
</g>
<g>
</g>
<g>
</g>
<g>
</g>
<g>
</g>
<g>
</g>
</svg>
