<?xml version="1.0" encoding="iso-8859-1"?>
<!-- Generator: Adobe Illustrator 19.0.0, SVG Export Plug-In . SVG Version: 6.00 Build 0)  -->
<svg xmlns="http://www.w3.org/2000/svg" xmlns:xlink="http://www.w3.org/1999/xlink" version="1.1" id="Capa_1" x="0px" y="0px" viewBox="0 0 64 64" style="enable-background:new 0 0 64 64;" xml:space="preserve" width="512px" height="512px">
<g id="Ski">
	<path d="M25.052,0.356C24.858,0.127,24.549,0.003,24.274,0c-0.3,0.003-0.582,0.141-0.77,0.375c-1.848,2.309-3.27,4.697-4.232,7.106   c-0.354,0.914-0.534,1.878-0.534,2.861c-0.014,4.542-0.021,22.797-0.021,51.404c0,1.242,1.011,2.253,2.253,2.253h6.852   c1.242,0,2.253-1.011,2.253-2.253V10.254c0-0.956-0.169-1.895-0.517-2.824C28.619,5.178,27.104,2.798,25.052,0.356z M20.72,35.325   c0.939-0.934,2.303-1.485,3.738-1.485c0.018,0,0.037,0,0.055,0.001c1.397,0.013,2.673,0.55,3.563,1.476v3.322   c-0.057-0.01-0.11-0.034-0.17-0.034h-7.018c-0.06,0-0.111,0.024-0.168,0.034C20.719,37.502,20.719,36.399,20.72,35.325z    M20.719,40.569c0.057,0.01,0.109,0.034,0.168,0.034h7.018c0.06,0,0.113-0.024,0.17-0.034v1.546c-0.057-0.01-0.11-0.034-0.17-0.034   h-7.018c-0.06,0-0.112,0.024-0.169,0.034C20.718,41.593,20.719,41.08,20.719,40.569z M21.134,8.214   c0.751-1.88,1.816-3.76,3.174-5.602c1.523,1.94,2.664,3.811,3.392,5.553c0.249,0.669,0.376,1.373,0.376,2.089v22.543   c-1.044-0.606-2.26-0.945-3.543-0.957c-1.35-0.029-2.68,0.331-3.812,0.985c0.004-11.993,0.01-19.738,0.018-22.479   C20.738,9.608,20.872,8.888,21.134,8.214z M27.822,62H20.97c-0.14,0-0.253-0.113-0.253-0.253c0-6.439,0-12.348,0.001-17.7   c0.057,0.01,0.109,0.034,0.169,0.034h7.018c0.06,0,0.113-0.024,0.17-0.034v17.7C28.075,61.887,27.962,62,27.822,62z" fill="#FFFFFF"/>
	<path d="M41.027,0.356C40.834,0.127,40.536,0.003,40.25,0c-0.3,0.003-0.582,0.141-0.769,0.375c-1.847,2.306-3.27,4.694-4.233,7.107   c-0.354,0.917-0.534,1.88-0.534,2.86c-0.014,4.542-0.021,22.797-0.021,51.404c0,1.242,1.01,2.253,2.252,2.253h6.853   c1.243,0,2.254-1.011,2.254-2.253V10.254c0-0.953-0.17-1.891-0.518-2.823C44.595,5.176,43.078,2.796,41.027,0.356z M36.696,35.326   c0.957-0.95,2.382-1.516,3.792-1.486c1.397,0.013,2.673,0.55,3.563,1.476v3.322c-0.057-0.01-0.11-0.034-0.17-0.034h-7.02   c-0.059,0-0.111,0.024-0.167,0.034C36.695,37.503,36.696,36.4,36.696,35.326z M36.695,40.57c0.057,0.01,0.108,0.034,0.167,0.034   h7.02c0.06,0,0.112-0.024,0.17-0.034v1.546c-0.057-0.01-0.11-0.034-0.17-0.034h-7.02c-0.06,0-0.111,0.024-0.168,0.034   C36.695,41.593,36.695,41.08,36.695,40.57z M37.109,8.214c0.751-1.882,1.817-3.762,3.174-5.602c1.522,1.939,2.664,3.81,3.391,5.553   c0.251,0.673,0.378,1.376,0.378,2.089v22.543c-1.044-0.606-2.261-0.945-3.544-0.957c-1.341-0.029-2.675,0.332-3.811,0.988   c0.003-11.995,0.009-19.74,0.017-22.482C36.714,9.61,36.849,8.889,37.109,8.214z M43.798,62h-6.853   c-0.139,0-0.252-0.113-0.252-0.253c0-6.439,0-12.348,0.001-17.699c0.057,0.01,0.108,0.034,0.168,0.034h7.02   c0.06,0,0.112-0.024,0.17-0.034v17.7C44.052,61.887,43.938,62,43.798,62z" fill="#FFFFFF"/>
	<path d="M13.232,57.475c-1.379-0.872-2.787-1.364-4.214-1.517V23.057h1.34c0.553,0,1-0.448,1-1s-0.447-1-1-1h-1.34v-4.849   c0-0.552-0.447-1-1-1s-1,0.448-1,1v4.849h-1.34c-0.553,0-1,0.448-1,1s0.447,1,1,1h1.34v32.913c-1.382,0.172-2.779,0.66-4.187,1.49   c-0.389,0.229-0.575,0.689-0.457,1.125c0.119,0.435,0.514,0.737,0.965,0.737h3.679V63c0,0.552,0.447,1,1,1s1-0.448,1-1v-3.679h3.68   c0.445,0,0.837-0.295,0.961-0.722C13.782,58.171,13.608,57.713,13.232,57.475z" fill="#FFFFFF"/>
	<path d="M61.168,57.459c-1.408-0.829-2.805-1.316-4.188-1.489V23.057h1.447c0.553,0,1-0.448,1-1s-0.447-1-1-1H56.98v-4.849   c0-0.552-0.447-1-1-1c-0.553,0-1,0.448-1,1v4.849h-1.231c-0.553,0-1,0.448-1,1s0.447,1,1,1h1.231v32.903   c-1.427,0.153-2.834,0.645-4.213,1.516c-0.376,0.238-0.55,0.696-0.427,1.124c0.124,0.427,0.516,0.722,0.961,0.722h3.679V63   c0,0.552,0.447,1,1,1c0.553,0,1-0.448,1-1v-3.679h3.68c0.451,0,0.846-0.302,0.965-0.737C61.743,58.149,61.557,57.688,61.168,57.459   z" fill="#FFFFFF"/>
</g>
<g>
</g>
<g>
</g>
<g>
</g>
<g>
</g>
<g>
</g>
<g>
</g>
<g>
</g>
<g>
</g>
<g>
</g>
<g>
</g>
<g>
</g>
<g>
</g>
<g>
</g>
<g>
</g>
<g>
</g>
</svg>
