<?xml version="1.0" encoding="UTF-8"?>
<!DOCTYPE svg PUBLIC "-//W3C//DTD SVG 1.1//EN" "http://www.w3.org/Graphics/SVG/1.1/DTD/svg11.dtd">
<!-- Creator: CorelDRAW X6 -->
<svg xmlns="http://www.w3.org/2000/svg" xml:space="preserve" width="2550px" height="3300px" version="1.1" style="shape-rendering:geometricPrecision; text-rendering:geometricPrecision; image-rendering:optimizeQuality; fill-rule:evenodd; clip-rule:evenodd"
viewBox="0 0 2550 3300"
 xmlns:xlink="http://www.w3.org/1999/xlink">
 <defs>
  <style type="text/css">
   <![CDATA[
    .fil0 {fill:#FEFEFE}
   ]]>
  </style>
 </defs>
 <g id="Layer_x0020_1">
  <metadata id="CorelCorpID_0Corel-Layer"/>
  <g id="_201155000">
   <g>
    <g>
     <path class="fil0" d="M686 1439c-117,0 -211,95 -211,211 0,117 95,211 211,211 116,0 211,-95 211,-211 0,-117 -95,-211 -211,-211z"/>
    </g>
    <g>
     <path class="fil0" d="M1285 1439c-117,0 -211,95 -211,211 0,117 95,211 211,211 117,0 211,-95 211,-211 0,-117 -95,-211 -211,-211z"/>
    </g>
    <g>
     <path class="fil0" d="M1864 1439c-117,0 -211,95 -211,211 0,117 95,211 211,211 116,0 211,-95 211,-211 0,-117 -95,-211 -211,-211z"/>
    </g>
   </g>
  </g>
  <g id="_201154256">
  </g>
  <g id="_201153944">
  </g>
  <g id="_201153752">
  </g>
  <g id="_201153704">
  </g>
  <g id="_201153776">
  </g>
  <g id="_201154112">
  </g>
  <g id="_201153608">
  </g>
  <g id="_201153560">
  </g>
  <g id="_201153632">
  </g>
  <g id="_201153080">
  </g>
  <g id="_201153416">
  </g>
  <g id="_201152960">
  </g>
  <g id="_201152864">
  </g>
  <g id="_201153392">
  </g>
  <g id="_201152936">
  </g>
 </g>
</svg>
